<svg width="20" height="20" viewBox="0 0 20 20" fill="none" xmlns="http://www.w3.org/2000/svg">
<path d="M3.75 3.125L16.25 16.875" stroke="#170B00" stroke-linecap="round" stroke-linejoin="round"/>
<path d="M12.1022 12.3122C11.4889 12.8696 10.6793 13.1606 9.85149 13.1211C9.02367 13.0817 8.24542 12.715 7.68794 12.1018C7.13046 11.4885 6.8394 10.679 6.87878 9.85114C6.91816 9.02332 7.28476 8.24504 7.89795 7.6875" stroke="#170B00" stroke-linecap="round" stroke-linejoin="round"/>
<path d="M5.78082 5.3584C2.59572 6.97133 1.25 9.99953 1.25 9.99953C1.25 9.99953 3.75 15.6239 10 15.6239C11.4644 15.6356 12.9105 15.2983 14.2186 14.64" stroke="#170B00" stroke-linecap="round" stroke-linejoin="round"/>
<path d="M16.2977 13.2105C18.001 11.685 18.7501 9.99965 18.7501 9.99965C18.7501 9.99965 16.2501 4.37404 10.0001 4.37404C9.45876 4.37315 8.91831 4.41716 8.38428 4.50561" stroke="#170B00" stroke-linecap="round" stroke-linejoin="round"/>
<path d="M10.5881 6.93066C11.2523 7.0582 11.8573 7.39766 12.3122 7.89811C12.7672 8.39857 13.0476 9.03303 13.1114 9.70635" stroke="#170B00" stroke-linecap="round" stroke-linejoin="round"/>
</svg>
