<svg width="18" height="18" viewBox="0 0 18 18" fill="none" xmlns="http://www.w3.org/2000/svg">
<path d="M8.58326 1.0219L2.28213 2.28213L1.0219 8.58326C1.00172 8.68416 1.00677 8.78847 1.03658 8.88695C1.0664 8.98543 1.12007 9.07502 1.19282 9.14777L9.3532 17.3081C9.41123 17.3662 9.48013 17.4122 9.55596 17.4436C9.63179 17.475 9.71306 17.4912 9.79514 17.4912C9.87721 17.4912 9.95849 17.475 10.0343 17.4436C10.1101 17.4122 10.179 17.3662 10.2371 17.3081L17.3081 10.2371C17.3662 10.179 17.4122 10.1101 17.4436 10.0343C17.475 9.95849 17.4912 9.87721 17.4912 9.79514C17.4912 9.71306 17.475 9.63179 17.4436 9.55596C17.4122 9.48013 17.3662 9.41123 17.3081 9.3532L9.14777 1.19282C9.07502 1.12007 8.98543 1.0664 8.88695 1.03658C8.78847 1.00677 8.68416 1.00172 8.58326 1.0219V1.0219Z" stroke="#170B00" stroke-linecap="round" stroke-linejoin="round"/>
</svg>
