<svg width="20" height="20" viewBox="0 0 20 20" fill="none" xmlns="http://www.w3.org/2000/svg">
<path d="M16.25 6.25C16.25 5.91848 16.1183 5.60054 15.8839 5.36612C15.6495 5.1317 15.3315 5 15 5H11.875L16.25 12.5" stroke="#170B00" stroke-linecap="round" stroke-linejoin="round"/>
<path d="M16.25 15.625C17.9759 15.625 19.375 14.2259 19.375 12.5C19.375 10.7741 17.9759 9.375 16.25 9.375C14.5241 9.375 13.125 10.7741 13.125 12.5C13.125 14.2259 14.5241 15.625 16.25 15.625Z" stroke="#170B00" stroke-linecap="round" stroke-linejoin="round"/>
<path d="M3.75 15.625C5.47589 15.625 6.875 14.2259 6.875 12.5C6.875 10.7741 5.47589 9.375 3.75 9.375C2.02411 9.375 0.625 10.7741 0.625 12.5C0.625 14.2259 2.02411 15.625 3.75 15.625Z" stroke="#170B00" stroke-linecap="round" stroke-linejoin="round"/>
<path d="M3.75 5H5.9375L10.3125 12.5" stroke="#170B00" stroke-linecap="round" stroke-linejoin="round"/>
<path d="M13.288 7.5H7.39586L3.75 12.5" stroke="#170B00" stroke-linecap="round" stroke-linejoin="round"/>
</svg>
