<svg width="20" height="20" viewBox="0 0 20 20" fill="none" xmlns="http://www.w3.org/2000/svg">
<path d="M15.625 17.5C16.6605 17.5 17.5 16.6605 17.5 15.625C17.5 14.5895 16.6605 13.75 15.625 13.75C14.5895 13.75 13.75 14.5895 13.75 15.625C13.75 16.6605 14.5895 17.5 15.625 17.5Z" stroke="#170B00" stroke-linecap="round" stroke-linejoin="round"/>
<path d="M5.625 4.375H13.125C13.788 4.375 14.4239 4.63839 14.8928 5.10723C15.3616 5.57607 15.625 6.21196 15.625 6.875C15.625 7.53804 15.3616 8.17393 14.8928 8.64277C14.4239 9.11161 13.788 9.375 13.125 9.375H5.625C4.7962 9.375 4.00134 9.70424 3.41529 10.2903C2.82924 10.8763 2.5 11.6712 2.5 12.5C2.5 13.3288 2.82924 14.1237 3.41529 14.7097C4.00134 15.2958 4.7962 15.625 5.625 15.625H13.75" stroke="#170B00" stroke-linecap="round" stroke-linejoin="round"/>
</svg>
