<svg width="21" height="20" viewBox="0 0 21 20" fill="none" xmlns="http://www.w3.org/2000/svg">
<path d="M12.3125 13.4375L3.875 13.4375" stroke="#170B00" stroke-linecap="round" stroke-linejoin="round"/>
<path d="M17.625 13.4375L15.4375 13.4375" stroke="#170B00" stroke-linecap="round" stroke-linejoin="round"/>
<path d="M13.875 15C14.7379 15 15.4375 14.3004 15.4375 13.4375C15.4375 12.5746 14.7379 11.875 13.875 11.875C13.0121 11.875 12.3125 12.5746 12.3125 13.4375C12.3125 14.3004 13.0121 15 13.875 15Z" stroke="#170B00" stroke-linecap="round" stroke-linejoin="round"/>
<path d="M7.3125 6.56257L3.875 6.5625" stroke="#170B00" stroke-linecap="round" stroke-linejoin="round"/>
<path d="M17.625 6.5625L10.4375 6.56257" stroke="#170B00" stroke-linecap="round" stroke-linejoin="round"/>
<path d="M8.875 8.125C9.73794 8.125 10.4375 7.42544 10.4375 6.5625C10.4375 5.69956 9.73794 5 8.875 5C8.01206 5 7.3125 5.69956 7.3125 6.5625C7.3125 7.42544 8.01206 8.125 8.875 8.125Z" stroke="#170B00" stroke-linecap="round" stroke-linejoin="round"/>
</svg>
