<svg width="40" height="40" viewBox="0 0 40 40" fill="none" xmlns="http://www.w3.org/2000/svg">
<g clip-path="url(#clip0_1834_58373)">
<path d="M40 20.1556C40 18.7654 39.8899 17.3677 39.6548 16H20.8V23.8754H31.5973C31.1492 26.4153 29.3081 28.9722 27.2 30.4L27.6016 35.2L33.6 35.2C37.3828 31.638 40 26.3778 40 20.1556Z" fill="#4285F4"/>
<path d="M20.3127 40C25.7189 40 30.2781 38.2473 33.5999 35.2218L27.1999 30.4C25.4027 31.6073 23.0231 32.1673 20.32 32.1673C15.0906 32.1673 10.3908 28.6836 8.7999 24H2.3999V29.0982C5.80273 35.7818 12.7336 40 20.3127 40Z" fill="#34A853"/>
<path d="M8.80002 23.9998C7.88305 21.5658 8.28305 18.4338 9.20002 15.9998L9.60002 11.1998L2.4 10.7998C-0.704817 16.3376 -0.776182 23.262 2.32863 28.7998L8.80002 23.9998Z" fill="#FBBC04"/>
<path d="M20.6985 7.82985C23.6179 7.78624 26.4394 8.84748 28.5537 10.7955L34.3999 5.14766C30.698 1.78946 25.7848 -0.0568174 20.6985 0.00133309C12.9562 0.00133309 5.87604 4.11269 2.3999 10.8L9.20169 16C10.8194 11.3116 15.3564 7.82985 20.6985 7.82985Z" fill="#EA4335"/>
</g>
<defs>
<clipPath id="clip0_1834_58373">
<rect width="40" height="40" fill="white"/>
</clipPath>
</defs>
</svg>
