<svg width="28" height="26" viewBox="0 0 28 26" fill="none" xmlns="http://www.w3.org/2000/svg">
<path d="M1.03125 19.9121C1.03125 19.636 1.25511 19.4121 1.53125 19.4121H17.0311C17.3285 19.4121 17.6192 19.3237 17.8663 19.1581L23.1869 15.5915C23.3295 15.4959 23.511 15.4801 23.6679 15.5497L23.8705 15.0925L23.6679 15.5497L25.814 16.5008C26.1565 16.6526 26.2166 17.1133 25.9244 17.3478L26.2375 17.7377L25.9244 17.3478L19.7823 22.2793C19.6935 22.3506 19.5831 22.3894 19.4693 22.3894H1.53125C1.25511 22.3894 1.03125 22.1656 1.03125 21.8894V19.9121Z" stroke="#170B00"/>
<path d="M19.1127 24.7964C19.2039 25.057 19.4866 25.1874 19.744 25.0875C20.0015 24.9877 20.1362 24.6954 20.045 24.4348L19.1127 24.7964ZM18.4166 22.8077L19.1127 24.7964L20.045 24.4348L19.349 22.4462L18.4166 22.8077Z" fill="#170B00"/>
<path d="M2.2389 24.7964C2.14767 25.057 1.86501 25.1874 1.60755 25.0875C1.35009 24.9877 1.21533 24.6954 1.30655 24.4348L2.2389 24.7964ZM2.93492 22.8077L2.2389 24.7964L1.30655 24.4348L2.00258 22.4462L2.93492 22.8077Z" fill="#170B00"/>
<path d="M10.8111 19.1547L10.9037 9.34627M10.7049 0.904765C16.5863 0.834764 18.8417 5.45171 19.6267 10.0862C17.2476 7.63779 14.7145 9.11267 13.7453 10.1562C11.3662 7.70779 8.8331 9.18267 7.86395 10.2262C6.07958 8.38988 3.19954 9.50771 1.98256 10.2962C2.49844 6.79427 4.00678 3.59858 6.97187 1.76229C7.61689 1.36283 10.0238 0.912871 10.7049 0.904765ZM10.7049 0.904765C8.05257 2.87144 7.66369 6.021 7.55103 7.56587M10.7049 0.904765C12.9566 2.58152 13.8423 5.2649 13.8693 7.51053" stroke="#170B00" stroke-linecap="round" stroke-linejoin="round"/>
</svg>
