<svg width="12" height="11" viewBox="0 0 12 11" fill="none" xmlns="http://www.w3.org/2000/svg">
<path d="M5.52465 0.457261C5.67467 -0.00266415 6.32533 -0.00266415 6.47535 0.457261L7.46347 3.4865C7.53051 3.69203 7.72206 3.83119 7.93824 3.83144L11.1246 3.83511C11.6083 3.83567 11.8094 4.45448 11.4184 4.73928L8.84272 6.61513C8.66796 6.7424 8.5948 6.96757 8.66137 7.17326L9.64251 10.2048C9.79147 10.665 9.26508 11.0475 8.87337 10.7636L6.29343 8.89367C6.11838 8.7668 5.88162 8.7668 5.70657 8.89367L3.12663 10.7636C2.73492 11.0475 2.20853 10.665 2.35749 10.2048L3.33863 7.17326C3.4052 6.96757 3.33204 6.7424 3.15728 6.61513L0.58165 4.73928C0.190596 4.45448 0.391658 3.83567 0.875433 3.83511L4.06176 3.83144C4.27794 3.83119 4.46949 3.69203 4.53653 3.4865L5.52465 0.457261Z" fill="#F97800"/>
</svg>
