<svg width="40" height="40" viewBox="0 0 40 40" fill="none" xmlns="http://www.w3.org/2000/svg">
<g clip-path="url(#clip0_1834_32739)">
<path d="M0 19.2C0 10.149 0 5.62355 2.81177 2.81177C5.62355 0 10.149 0 19.2 0H20.8C29.851 0 34.3764 0 37.1882 2.81177C40 5.62355 40 10.149 40 19.2V20.8C40 29.851 40 34.3764 37.1882 37.1882C34.3764 40 29.851 40 20.8 40H19.2C10.149 40 5.62355 40 2.81177 37.1882C0 34.3764 0 29.851 0 20.8V19.2Z" fill="#FF7E00"/>
<path fill-rule="evenodd" clip-rule="evenodd" d="M20.1505 7.58901C21.6249 7.70705 22.9695 8.34231 24.0064 9.41075C25.0436 10.4796 25.6605 11.8651 25.7742 13.3812C25.7901 13.5934 25.7901 14.0907 25.7742 14.3029C25.694 15.3728 25.363 16.3814 24.8026 17.2638C23.8221 18.8077 22.233 19.8334 20.4744 20.0576C19.896 20.1314 19.2971 20.121 18.7354 20.0274C17.6543 19.8472 16.6673 19.3825 15.8054 18.6476C15.614 18.4843 15.2012 18.059 15.0427 17.8617C14.3312 16.9755 13.881 15.9618 13.7045 14.8485C13.6479 14.4917 13.6326 14.2777 13.6326 13.842C13.6326 13.406 13.648 13.1912 13.7045 12.8358C13.8883 11.6812 14.3637 10.6357 15.1138 9.73648C15.2647 9.55565 15.6289 9.18627 15.8054 9.03506C16.7525 8.22388 17.8459 7.74695 19.0809 7.60629C19.2832 7.58324 19.9449 7.57255 20.1505 7.58901ZM19.4441 11.271C18.6584 11.3614 17.9467 11.8342 17.5497 12.5294C17.3868 12.8145 17.2849 13.1053 17.2269 13.4498C17.198 13.6212 17.198 14.0628 17.2269 14.2343C17.3224 14.8018 17.556 15.2724 17.9371 15.6649C18.6164 16.3643 19.6097 16.6058 20.507 16.2895C21.4294 15.9644 22.0837 15.1306 22.2011 14.1308C22.2168 13.9971 22.2168 13.687 22.2011 13.5533C22.111 12.7863 21.7097 12.1154 21.0818 11.6823C20.9449 11.5878 20.6523 11.442 20.4923 11.3885C20.2958 11.3227 20.1728 11.2959 19.9325 11.2665C19.852 11.2566 19.5442 11.2595 19.4441 11.271ZM24.8575 20.3113C25.1269 20.3423 25.2803 20.3805 25.4631 20.4622C26.1537 20.7709 26.5936 21.529 26.5259 22.294C26.4847 22.7589 26.3163 23.1352 26.0075 23.4525C25.8416 23.6229 25.674 23.7399 25.2029 24.014C24.3511 24.5095 23.3197 24.9293 22.3742 25.165C22.289 25.1862 22.2116 25.2061 22.2021 25.2091C22.1913 25.2126 22.8316 25.8818 23.942 27.0276C25.8426 28.9886 25.7676 28.9063 25.8992 29.1767C25.9712 29.3247 26.0413 29.5436 26.0668 29.6997C26.0933 29.8625 26.0933 30.1505 26.0668 30.3133C25.9586 30.9763 25.4941 31.5379 24.8794 31.7486C24.661 31.8235 24.5825 31.8353 24.3037 31.8353C24.0853 31.8353 24.0378 31.8317 23.9299 31.8068C23.6863 31.7505 23.4573 31.6468 23.2579 31.5021C23.1842 31.4486 22.7372 30.996 21.4332 29.6543L19.7062 27.8774L17.9732 29.6609C16.0992 31.5895 16.176 31.5152 15.9143 31.6504C15.792 31.7136 15.6107 31.7794 15.4719 31.811C15.3314 31.843 14.9798 31.8496 14.8266 31.8232C14.2823 31.7294 13.8303 31.4056 13.5544 30.9118C13.4542 30.7325 13.3688 30.4698 13.3406 30.2542C13.3244 30.1309 13.3244 29.8821 13.3406 29.7588C13.3677 29.5519 13.4521 29.2869 13.5463 29.1135C13.6702 28.8853 13.6649 28.8911 15.4825 27.0153C16.6034 25.8584 17.2211 25.2125 17.2101 25.2087C17.2007 25.2054 17.1126 25.1824 17.0143 25.1575C15.9675 24.8926 14.881 24.4304 13.9354 23.8478C13.6071 23.6455 13.4585 23.5272 13.3183 23.3565C13.1318 23.1295 13.0139 22.8973 12.9434 22.6177C12.9011 22.4502 12.8873 22.3322 12.8873 22.1394C12.8873 21.3464 13.3752 20.6538 14.1105 20.4031C14.3083 20.3356 14.4516 20.3126 14.6739 20.3128C15.0543 20.3129 15.3039 20.3922 15.6998 20.6383C16.3999 21.0737 17.0895 21.3701 17.86 21.5669C19.4565 21.9745 21.1418 21.8428 22.666 21.1913C23.0127 21.0431 23.412 20.8324 23.7355 20.6272C24.067 20.4168 24.3404 20.3259 24.6848 20.3119C24.7569 20.3089 24.8346 20.3087 24.8575 20.3113Z" fill="white"/>
</g>
<defs>
<clipPath id="clip0_1834_32739">
<rect width="40" height="40" fill="white"/>
</clipPath>
</defs>
</svg>
