<svg width="28" height="28" viewBox="0 0 28 28" fill="none" xmlns="http://www.w3.org/2000/svg">
<rect x="0.5" y="0.5" width="27" height="27" rx="13.5" fill="#FDFDFD"/>
<rect x="0.5" y="0.5" width="27" height="27" rx="13.5" stroke="#646362"/>
<path d="M20.25 20.25H7.75C7.41848 20.25 7.10054 20.1183 6.86612 19.8839C6.6317 19.6495 6.5 19.3315 6.5 19V10.25C6.5 9.91848 6.6317 9.60054 6.86612 9.36612C7.10054 9.1317 7.41848 9 7.75 9H10.2495L11.4995 7.125H16.4995L17.7495 9H20.25C20.5815 9 20.8995 9.1317 21.1339 9.36612C21.3683 9.60054 21.5 9.91848 21.5 10.25V19C21.5 19.3315 21.3683 19.6495 21.1339 19.8839C20.8995 20.1183 20.5815 20.25 20.25 20.25Z" stroke="#646362" stroke-linecap="round" stroke-linejoin="round"/>
<path d="M14 17.125C15.5533 17.125 16.8125 15.8658 16.8125 14.3125C16.8125 12.7592 15.5533 11.5 14 11.5C12.4467 11.5 11.1875 12.7592 11.1875 14.3125C11.1875 15.8658 12.4467 17.125 14 17.125Z" stroke="#646362" stroke-linecap="round" stroke-linejoin="round"/>
</svg>
